REM MD5 0a8352a302a2503c871a0ee2aca127b3
FILE "Euro Demo 05-99 (Germany).bin" BINARY
  TRACK 01 MODE2/2352
    INDEX 01 00:00:00
  TRACK 02 AUDIO
    INDEX 00 29:46:01
    INDEX 01 29:48:01
  TRACK 03 AUDIO
    INDEX 00 30:44:56
    INDEX 01 30:46:56
  TRACK 04 AUDIO
    INDEX 00 34:11:24
    INDEX 01 34:13:24
REM LEADOUT 37:14:56
